<svg width="50" height="24" viewBox="0 0 50 24" fill="none" xmlns="http://www.w3.org/2000/svg">
<path d="M0.654109 9L2.46611 0.431999H3.53411L2.64611 4.596L6.69011 0.431999H7.98611L3.75011 4.716L6.42611 9H5.20211L2.61011 4.752L1.72211 9H0.654109ZM9.21639 9.12C8.87239 9.12 8.56839 9.04 8.30439 8.88C8.04839 8.712 7.84439 8.464 7.69239 8.136C7.54839 7.808 7.47639 7.404 7.47639 6.924C7.47639 6.444 7.52439 5.984 7.62039 5.544C7.72439 5.096 7.86839 4.684 8.05239 4.308C8.23639 3.932 8.45639 3.608 8.71239 3.336C8.97639 3.056 9.26839 2.84 9.58839 2.688C9.91639 2.528 10.2644 2.448 10.6324 2.448C10.9124 2.448 11.1564 2.5 11.3644 2.604C11.5804 2.708 11.7604 2.844 11.9044 3.012C12.0484 3.18 12.1644 3.364 12.2524 3.564H12.3124L12.6964 2.568H13.5004L12.1324 9H11.2924L11.4484 7.812H11.4004C11.2164 8.044 11.0124 8.26 10.7884 8.46C10.5644 8.66 10.3204 8.82 10.0564 8.94C9.80039 9.06 9.52039 9.12 9.21639 9.12ZM9.56439 8.244C9.86039 8.244 10.1484 8.136 10.4284 7.92C10.7164 7.704 10.9764 7.412 11.2084 7.044C11.4404 6.676 11.6164 6.264 11.7364 5.808C11.8004 5.576 11.8404 5.364 11.8564 5.172C11.8804 4.972 11.8924 4.788 11.8924 4.62C11.8924 4.244 11.7884 3.936 11.5804 3.696C11.3724 3.456 11.0924 3.336 10.7404 3.336C10.4924 3.336 10.2564 3.4 10.0324 3.528C9.81639 3.656 9.61639 3.836 9.43239 4.068C9.24839 4.292 9.09239 4.556 8.96439 4.86C8.83639 5.164 8.73639 5.496 8.66439 5.856C8.59239 6.208 8.55639 6.572 8.55639 6.948C8.55639 7.38 8.64439 7.704 8.82039 7.92C8.99639 8.136 9.24439 8.244 9.56439 8.244ZM14.0567 9L15.4247 2.568H16.2887L16.1567 3.756H16.2167C16.3607 3.556 16.5287 3.356 16.7207 3.156C16.9207 2.956 17.1487 2.788 17.4047 2.652C17.6687 2.516 17.9647 2.448 18.2927 2.448C18.7327 2.448 19.0687 2.576 19.3007 2.832C19.5407 3.08 19.6847 3.428 19.7327 3.876H19.7807C19.9407 3.636 20.1287 3.408 20.3447 3.192C20.5687 2.976 20.8167 2.8 21.0887 2.664C21.3607 2.52 21.6607 2.448 21.9887 2.448C22.4847 2.448 22.8687 2.584 23.1407 2.856C23.4127 3.128 23.5487 3.52 23.5487 4.032C23.5487 4.224 23.5367 4.404 23.5127 4.572C23.4887 4.732 23.4567 4.904 23.4167 5.088L22.5887 9H21.5207L22.3847 4.968C22.4247 4.784 22.4527 4.628 22.4687 4.5C22.4847 4.372 22.4927 4.248 22.4927 4.128C22.4927 3.888 22.4247 3.696 22.2887 3.552C22.1607 3.408 21.9567 3.336 21.6767 3.336C21.4847 3.336 21.2807 3.392 21.0647 3.504C20.8487 3.608 20.6367 3.772 20.4287 3.996C20.2207 4.22 20.0327 4.508 19.8647 4.86C19.6967 5.204 19.5607 5.616 19.4567 6.096L18.8447 9H17.7887L18.6407 4.968C18.6807 4.784 18.7087 4.632 18.7247 4.512C18.7407 4.384 18.7487 4.272 18.7487 4.176C18.7487 3.912 18.6887 3.708 18.5687 3.564C18.4487 3.412 18.2487 3.336 17.9687 3.336C17.7767 3.336 17.5687 3.388 17.3447 3.492C17.1287 3.596 16.9167 3.764 16.7087 3.996C16.5007 4.22 16.3087 4.516 16.1327 4.884C15.9567 5.252 15.8127 5.7 15.7007 6.228L15.1127 9H14.0567ZM26.5367 9.12C26.1927 9.12 25.8887 9.04 25.6247 8.88C25.3687 8.712 25.1647 8.464 25.0127 8.136C24.8687 7.808 24.7967 7.404 24.7967 6.924C24.7967 6.444 24.8447 5.984 24.9407 5.544C25.0447 5.096 25.1887 4.684 25.3727 4.308C25.5567 3.932 25.7767 3.608 26.0327 3.336C26.2967 3.056 26.5887 2.84 26.9087 2.688C27.2367 2.528 27.5847 2.448 27.9527 2.448C28.2327 2.448 28.4767 2.5 28.6847 2.604C28.9007 2.708 29.0807 2.844 29.2247 3.012C29.3687 3.18 29.4847 3.364 29.5727 3.564H29.6327L30.0167 2.568H30.8207L29.4527 9H28.6127L28.7687 7.812H28.7207C28.5367 8.044 28.3327 8.26 28.1087 8.46C27.8847 8.66 27.6407 8.82 27.3767 8.94C27.1207 9.06 26.8407 9.12 26.5367 9.12ZM26.8847 8.244C27.1807 8.244 27.4687 8.136 27.7487 7.92C28.0367 7.704 28.2967 7.412 28.5287 7.044C28.7607 6.676 28.9367 6.264 29.0567 5.808C29.1207 5.576 29.1607 5.364 29.1767 5.172C29.2007 4.972 29.2127 4.788 29.2127 4.62C29.2127 4.244 29.1087 3.936 28.9007 3.696C28.6927 3.456 28.4127 3.336 28.0607 3.336C27.8127 3.336 27.5767 3.4 27.3527 3.528C27.1367 3.656 26.9367 3.836 26.7527 4.068C26.5687 4.292 26.4127 4.556 26.2847 4.86C26.1567 5.164 26.0567 5.496 25.9847 5.856C25.9127 6.208 25.8767 6.572 25.8767 6.948C25.8767 7.38 25.9647 7.704 26.1407 7.92C26.3167 8.136 26.5647 8.244 26.8847 8.244ZM31.005 9.084C30.901 9.084 30.805 9.072 30.717 9.048C30.629 9.032 30.561 9.016 30.513 9V8.088C30.569 8.112 30.629 8.132 30.693 8.148C30.757 8.156 30.829 8.16 30.909 8.16C31.101 8.16 31.269 8.116 31.413 8.028C31.565 7.932 31.705 7.784 31.833 7.584C31.961 7.384 32.089 7.124 32.217 6.804C32.353 6.484 32.497 6.1 32.649 5.652C32.833 5.116 33.009 4.652 33.177 4.26C33.345 3.868 33.533 3.544 33.741 3.288C33.957 3.024 34.221 2.828 34.533 2.7C34.845 2.572 35.233 2.508 35.697 2.508C35.969 2.508 36.233 2.528 36.489 2.568C36.745 2.6 36.977 2.648 37.185 2.712L35.841 9H34.773L35.985 3.444C35.929 3.428 35.861 3.416 35.781 3.408C35.701 3.4 35.617 3.396 35.529 3.396C35.201 3.396 34.933 3.476 34.725 3.636C34.525 3.788 34.341 4.052 34.173 4.428C34.005 4.804 33.805 5.332 33.573 6.012C33.397 6.508 33.229 6.948 33.069 7.332C32.909 7.708 32.737 8.028 32.553 8.292C32.369 8.548 32.153 8.744 31.905 8.88C31.657 9.016 31.357 9.084 31.005 9.084ZM40.5444 9.096C40.0484 9.096 39.6204 8.996 39.2604 8.796C38.9004 8.596 38.6244 8.312 38.4324 7.944C38.2404 7.568 38.1444 7.128 38.1444 6.624C38.1444 6.232 38.1884 5.84 38.2764 5.448C38.3644 5.048 38.4924 4.672 38.6604 4.32C38.8364 3.968 39.0524 3.656 39.3084 3.384C39.5644 3.104 39.8644 2.884 40.2084 2.724C40.5524 2.564 40.9364 2.484 41.3604 2.484C41.8644 2.484 42.2924 2.584 42.6444 2.784C43.0044 2.984 43.2804 3.272 43.4724 3.648C43.6644 4.016 43.7604 4.456 43.7604 4.968C43.7604 5.36 43.7164 5.752 43.6284 6.144C43.5404 6.536 43.4084 6.912 43.2324 7.272C43.0644 7.624 42.8524 7.936 42.5964 8.208C42.3404 8.48 42.0404 8.696 41.6964 8.856C41.3524 9.016 40.9684 9.096 40.5444 9.096ZM40.6044 8.22C40.8364 8.22 41.0524 8.172 41.2524 8.076C41.4604 7.98 41.6524 7.84 41.8284 7.656C42.0044 7.464 42.1524 7.232 42.2724 6.96C42.4004 6.68 42.5004 6.364 42.5724 6.012C42.6444 5.66 42.6804 5.272 42.6804 4.848C42.6804 4.608 42.6364 4.376 42.5484 4.152C42.4684 3.92 42.3324 3.732 42.1404 3.588C41.9484 3.436 41.6924 3.36 41.3724 3.36C41.1084 3.36 40.8644 3.416 40.6404 3.528C40.4164 3.64 40.2164 3.8 40.0404 4.008C39.8644 4.208 39.7124 4.448 39.5844 4.728C39.4644 5 39.3724 5.3 39.3084 5.628C39.2444 5.956 39.2124 6.3 39.2124 6.66C39.2124 7.156 39.3324 7.54 39.5724 7.812C39.8204 8.084 40.1644 8.22 40.6044 8.22ZM46.7061 9.12C46.3381 9.12 45.9941 9.064 45.6741 8.952C45.3621 8.84 45.1101 8.664 44.9181 8.424C44.7261 8.184 44.6301 7.872 44.6301 7.488C44.6301 7.176 44.6901 6.904 44.8101 6.672C44.9381 6.44 45.1061 6.244 45.3141 6.084C45.5221 5.916 45.7541 5.776 46.0101 5.664C46.2661 5.544 46.5221 5.436 46.7781 5.34C47.0981 5.212 47.3821 5.092 47.6301 4.98C47.8781 4.86 48.0701 4.724 48.2061 4.572C48.3501 4.412 48.4221 4.224 48.4221 4.008C48.4221 3.808 48.3581 3.648 48.2301 3.528C48.1021 3.4 47.8741 3.336 47.5461 3.336C47.2341 3.336 46.9261 3.38 46.6221 3.468C46.3181 3.548 46.0381 3.644 45.7821 3.756L45.4941 2.916C45.7741 2.812 46.0941 2.712 46.4541 2.616C46.8141 2.512 47.2141 2.46 47.6541 2.46C48.0141 2.46 48.3301 2.512 48.6021 2.616C48.8821 2.712 49.0981 2.868 49.2501 3.084C49.4101 3.3 49.4901 3.588 49.4901 3.948C49.4901 4.228 49.4341 4.476 49.3221 4.692C49.2101 4.9 49.0581 5.084 48.8661 5.244C48.6741 5.396 48.4581 5.532 48.2181 5.652C47.9781 5.764 47.7301 5.868 47.4741 5.964C47.1141 6.1 46.7981 6.232 46.5261 6.36C46.2621 6.48 46.0581 6.62 45.9141 6.78C45.7701 6.94 45.6981 7.148 45.6981 7.404C45.6981 7.66 45.7901 7.864 45.9741 8.016C46.1661 8.168 46.4621 8.244 46.8621 8.244C47.0781 8.244 47.2901 8.224 47.4981 8.184C47.7061 8.136 47.9101 8.076 48.1101 8.004C48.3101 7.924 48.5061 7.84 48.6981 7.752V8.676C48.4181 8.804 48.1181 8.912 47.7981 9C47.4781 9.08 47.1141 9.12 46.7061 9.12ZM4.52191 23.12C4.20191 23.12 3.91791 23.06 3.66991 22.94C3.42991 22.82 3.24191 22.64 3.10591 22.4C2.97791 22.16 2.91391 21.868 2.91391 21.524C2.91391 21.34 2.92591 21.168 2.94991 21.008C2.98191 20.84 3.01391 20.668 3.04591 20.492L3.88591 16.568H4.95391L4.08991 20.612C4.05791 20.788 4.02991 20.94 4.00591 21.068C3.98991 21.196 3.98191 21.312 3.98191 21.416C3.98191 21.672 4.04591 21.876 4.17391 22.028C4.30991 22.172 4.52591 22.244 4.82191 22.244C5.09391 22.244 5.38591 22.148 5.69791 21.956C6.01791 21.764 6.31391 21.456 6.58591 21.032C6.85791 20.608 7.06991 20.044 7.22191 19.34L7.80991 16.568H8.85391L7.48591 23H6.62191L6.75391 21.812H6.69391C6.54191 22.004 6.36191 22.204 6.15391 22.412C5.95391 22.612 5.71791 22.78 5.44591 22.916C5.18191 23.052 4.87391 23.12 4.52191 23.12ZM11.0391 23.12C10.6951 23.12 10.3551 23.08 10.0191 23C9.69113 22.928 9.41513 22.832 9.19112 22.712V21.74C9.39913 21.852 9.66713 21.968 9.99512 22.088C10.3231 22.2 10.6991 22.256 11.1231 22.256C11.4591 22.256 11.7511 22.208 11.9991 22.112C12.2471 22.008 12.4391 21.868 12.5751 21.692C12.7111 21.508 12.7791 21.296 12.7791 21.056C12.7791 20.776 12.6951 20.548 12.5271 20.372C12.3671 20.196 12.0471 20.108 11.5671 20.108H10.6791L10.8831 19.22H11.4711C11.7351 19.22 11.9951 19.192 12.2511 19.136C12.5151 19.08 12.7311 18.972 12.8991 18.812C13.0671 18.652 13.1511 18.42 13.1511 18.116C13.1511 17.876 13.0671 17.688 12.8991 17.552C12.7391 17.408 12.4911 17.336 12.1551 17.336C11.9711 17.336 11.7911 17.352 11.6151 17.384C11.4391 17.408 11.2591 17.452 11.0751 17.516C10.8991 17.572 10.7071 17.648 10.4991 17.744L10.1871 16.94C10.5151 16.78 10.8431 16.66 11.1711 16.58C11.5071 16.492 11.8831 16.448 12.2991 16.448C12.6991 16.448 13.0391 16.508 13.3191 16.628C13.6071 16.748 13.8271 16.92 13.9791 17.144C14.1311 17.368 14.2071 17.64 14.2071 17.96C14.2071 18.248 14.1471 18.504 14.0271 18.728C13.9151 18.952 13.7471 19.14 13.5231 19.292C13.2991 19.444 13.0231 19.556 12.6951 19.628V19.652C13.0391 19.74 13.3071 19.896 13.4991 20.12C13.6911 20.344 13.7871 20.644 13.7871 21.02C13.7871 21.412 13.6871 21.768 13.4871 22.088C13.2871 22.408 12.9831 22.66 12.5751 22.844C12.1671 23.028 11.6551 23.12 11.0391 23.12ZM17.2352 23.12C16.7712 23.12 16.3792 23.024 16.0592 22.832C15.7472 22.632 15.5112 22.356 15.3512 22.004C15.1912 21.652 15.1112 21.244 15.1112 20.78C15.1112 20.412 15.1512 20.044 15.2312 19.676C15.3112 19.3 15.4312 18.944 15.5912 18.608C15.7592 18.264 15.9632 17.96 16.2032 17.696C16.4432 17.432 16.7192 17.224 17.0312 17.072C17.3512 16.92 17.7072 16.844 18.0992 16.844C18.4192 16.844 18.6872 16.892 18.9032 16.988C19.1192 17.076 19.2952 17.2 19.4312 17.36C19.5752 17.512 19.6912 17.68 19.7792 17.864H19.8152C19.8232 17.8 19.8272 17.74 19.8272 17.684C19.8272 17.62 19.8272 17.568 19.8272 17.528C19.8272 16.544 19.6952 15.816 19.4312 15.344C19.1672 14.872 18.7632 14.636 18.2192 14.636C18.0192 14.636 17.8032 14.66 17.5712 14.708C17.3472 14.756 17.1432 14.82 16.9592 14.9L16.6952 14.12C16.8872 14.024 17.1392 13.94 17.4512 13.868C17.7632 13.796 18.0632 13.76 18.3512 13.76C18.9432 13.76 19.4232 13.904 19.7912 14.192C20.1672 14.472 20.4432 14.888 20.6192 15.44C20.8032 15.984 20.8952 16.656 20.8952 17.456C20.8952 17.856 20.8632 18.276 20.7992 18.716C20.7352 19.148 20.6392 19.576 20.5112 20C20.3832 20.424 20.2192 20.824 20.0192 21.2C19.8272 21.576 19.5952 21.908 19.3232 22.196C19.0512 22.484 18.7432 22.712 18.3992 22.88C18.0552 23.04 17.6672 23.12 17.2352 23.12ZM17.3432 22.232C17.5832 22.232 17.8032 22.176 18.0032 22.064C18.2112 21.944 18.3992 21.784 18.5672 21.584C18.7432 21.376 18.8992 21.136 19.0352 20.864C19.1712 20.592 19.2872 20.3 19.3832 19.988C19.4872 19.676 19.5712 19.352 19.6352 19.016C19.5632 18.76 19.4592 18.532 19.3232 18.332C19.1952 18.124 19.0352 17.96 18.8432 17.84C18.6592 17.72 18.4432 17.66 18.1952 17.66C17.9792 17.66 17.7712 17.712 17.5712 17.816C17.3712 17.92 17.1872 18.068 17.0192 18.26C16.8512 18.452 16.7032 18.676 16.5752 18.932C16.4472 19.188 16.3472 19.472 16.2752 19.784C16.2112 20.096 16.1792 20.424 16.1792 20.768C16.1792 21.184 16.2672 21.532 16.4432 21.812C16.6272 22.092 16.9272 22.232 17.3432 22.232ZM24.236 23.12C23.74 23.12 23.316 23.024 22.964 22.832C22.62 22.632 22.356 22.352 22.172 21.992C21.996 21.624 21.908 21.192 21.908 20.696C21.908 20.184 21.98 19.68 22.124 19.184C22.276 18.68 22.492 18.224 22.772 17.816C23.052 17.4 23.388 17.068 23.78 16.82C24.18 16.572 24.628 16.448 25.124 16.448C25.732 16.448 26.188 16.58 26.492 16.844C26.804 17.108 26.96 17.476 26.96 17.948C26.96 18.26 26.888 18.556 26.744 18.836C26.6 19.108 26.376 19.348 26.072 19.556C25.768 19.764 25.38 19.928 24.908 20.048C24.436 20.16 23.868 20.216 23.204 20.216H23C22.992 20.288 22.984 20.364 22.976 20.444C22.976 20.524 22.976 20.596 22.976 20.66C22.976 21.148 23.096 21.536 23.336 21.824C23.576 22.104 23.94 22.244 24.428 22.244C24.732 22.244 25.02 22.2 25.292 22.112C25.564 22.024 25.86 21.904 26.18 21.752V22.652C25.876 22.788 25.576 22.9 25.28 22.988C24.992 23.076 24.644 23.12 24.236 23.12ZM23.24 19.364C23.72 19.364 24.164 19.324 24.572 19.244C24.98 19.156 25.308 19.016 25.556 18.824C25.804 18.624 25.928 18.36 25.928 18.032C25.928 17.824 25.856 17.656 25.712 17.528C25.576 17.392 25.36 17.324 25.064 17.324C24.808 17.324 24.556 17.404 24.308 17.564C24.06 17.724 23.836 17.956 23.636 18.26C23.436 18.564 23.276 18.932 23.156 19.364H23.24ZM27.2843 23.084C27.1803 23.084 27.0843 23.072 26.9963 23.048C26.9083 23.032 26.8403 23.016 26.7923 23V22.088C26.8483 22.112 26.9083 22.132 26.9723 22.148C27.0363 22.156 27.1083 22.16 27.1883 22.16C27.3803 22.16 27.5483 22.116 27.6923 22.028C27.8443 21.932 27.9843 21.784 28.1123 21.584C28.2403 21.384 28.3683 21.124 28.4963 20.804C28.6323 20.484 28.7763 20.1 28.9283 19.652C29.1123 19.116 29.2883 18.652 29.4563 18.26C29.6243 17.868 29.8123 17.544 30.0203 17.288C30.2363 17.024 30.5003 16.828 30.8123 16.7C31.1243 16.572 31.5123 16.508 31.9763 16.508C32.2483 16.508 32.5123 16.528 32.7683 16.568C33.0243 16.6 33.2563 16.648 33.4643 16.712L32.1203 23H31.0523L32.2643 17.444C32.2083 17.428 32.1403 17.416 32.0603 17.408C31.9803 17.4 31.8963 17.396 31.8083 17.396C31.4803 17.396 31.2123 17.476 31.0043 17.636C30.8043 17.788 30.6203 18.052 30.4523 18.428C30.2843 18.804 30.0843 19.332 29.8523 20.012C29.6763 20.508 29.5083 20.948 29.3483 21.332C29.1883 21.708 29.0163 22.028 28.8323 22.292C28.6483 22.548 28.4323 22.744 28.1843 22.88C27.9363 23.016 27.6363 23.084 27.2843 23.084ZM36.1157 23.12C35.7957 23.12 35.5117 23.06 35.2637 22.94C35.0237 22.82 34.8357 22.64 34.6997 22.4C34.5717 22.16 34.5077 21.868 34.5077 21.524C34.5077 21.34 34.5197 21.168 34.5437 21.008C34.5757 20.84 34.6077 20.668 34.6397 20.492L35.4797 16.568H36.5477L35.6837 20.612C35.6517 20.788 35.6237 20.94 35.5997 21.068C35.5837 21.196 35.5757 21.312 35.5757 21.416C35.5757 21.672 35.6397 21.876 35.7677 22.028C35.9037 22.172 36.1197 22.244 36.4157 22.244C36.6877 22.244 36.9797 22.148 37.2917 21.956C37.6117 21.764 37.9077 21.456 38.1797 21.032C38.4517 20.608 38.6637 20.044 38.8157 19.34L39.4037 16.568H40.4477L39.0797 23H38.2157L38.3477 21.812H38.2877C38.1357 22.004 37.9557 22.204 37.7477 22.412C37.5477 22.612 37.3117 22.78 37.0397 22.916C36.7757 23.052 36.4677 23.12 36.1157 23.12ZM45.1169 15.728C44.6689 15.728 44.3049 15.668 44.0249 15.548C43.7449 15.42 43.5409 15.248 43.4129 15.032C43.2849 14.816 43.2209 14.564 43.2209 14.276C43.2209 14.204 43.2249 14.132 43.2329 14.06C43.2489 13.98 43.2609 13.92 43.2689 13.88H44.1929C44.1849 13.944 44.1769 14.004 44.1689 14.06C44.1609 14.108 44.1569 14.16 44.1569 14.216C44.1569 14.44 44.2329 14.624 44.3849 14.768C44.5449 14.904 44.8089 14.972 45.1769 14.972C45.5529 14.972 45.8609 14.9 46.1009 14.756C46.3489 14.604 46.5129 14.312 46.5929 13.88H47.6009C47.5289 14.256 47.3969 14.584 47.2049 14.864C47.0129 15.136 46.7449 15.348 46.4009 15.5C46.0649 15.652 45.6369 15.728 45.1169 15.728ZM43.0649 23.12C42.7449 23.12 42.4609 23.06 42.2129 22.94C41.9729 22.82 41.7849 22.64 41.6489 22.4C41.5209 22.16 41.4569 21.868 41.4569 21.524C41.4569 21.34 41.4689 21.168 41.4929 21.008C41.5249 20.84 41.5569 20.668 41.5889 20.492L42.4289 16.568H43.4969L42.6329 20.612C42.6009 20.788 42.5729 20.94 42.5489 21.068C42.5329 21.196 42.5249 21.312 42.5249 21.416C42.5249 21.672 42.5889 21.876 42.7169 22.028C42.8529 22.172 43.0689 22.244 43.3649 22.244C43.6369 22.244 43.9289 22.148 44.2409 21.956C44.5609 21.764 44.8569 21.456 45.1289 21.032C45.4009 20.608 45.6129 20.044 45.7649 19.34L46.3529 16.568H47.3969L46.0289 23H45.1649L45.2969 21.812H45.2369C45.0849 22.004 44.9049 22.204 44.6969 22.412C44.4969 22.612 44.2609 22.78 43.9889 22.916C43.7249 23.052 43.4169 23.12 43.0649 23.12Z" fill="black"/>
</svg>
